<?xml version="1.0" encoding="UTF-8" standalone="no"?>
<!-- Created with Inkscape (http://www.inkscape.org/) -->

<svg
   width="185.93997mm"
   height="193.27686mm"
   viewBox="0 0 185.9399 193.27686"
   version="1.1"
   id="svg1"
   sodipodi:docname="L BC.svg"
   inkscape:version="1.4.2 (f4327f4, 2025-05-13)"
   xmlns:inkscape="http://www.inkscape.org/namespaces/inkscape"
   xmlns:sodipodi="http://sodipodi.sourceforge.net/DTD/sodipodi-0.dtd"
   xmlns="http://www.w3.org/2000/svg"
   xmlns:svg="http://www.w3.org/2000/svg">
  <sodipodi:namedview
     id="namedview1"
     pagecolor="#ffffff"
     bordercolor="#666666"
     borderopacity="1.0"
     inkscape:showpageshadow="2"
     inkscape:pageopacity="0.0"
     inkscape:pagecheckerboard="0"
     inkscape:deskcolor="#d1d1d1"
     inkscape:document-units="mm"
     inkscape:zoom="0.51339147"
     inkscape:cx="214.26145"
     inkscape:cy="269.77464"
     inkscape:window-width="1920"
     inkscape:window-height="1017"
     inkscape:window-x="-8"
     inkscape:window-y="-8"
     inkscape:window-maximized="1"
     inkscape:current-layer="layer1"
     showgrid="false" />
  <defs
     id="defs1">
    <rect
       x="4074.8633"
       y="93.495903"
       width="311.65302"
       height="186.99181"
       id="rect8" />
    <rect
       x="3837.2278"
       y="857.04578"
       width="91.548073"
       height="13.634819"
       id="rect7" />
    <rect
       x="1854.3354"
       y="950.54169"
       width="23.373976"
       height="257.11374"
       id="rect6" />
    <rect
       x="4316.3945"
       y="693.42798"
       width="631.09735"
       height="124.66121"
       id="rect5" />
    <rect
       x="2259.4844"
       y="171.40916"
       width="490.85349"
       height="198.6788"
       id="rect4" />
    <rect
       x="3661.9229"
       y="662.26263"
       width="3.8956628"
       height="50.643616"
       id="rect2" />
    <rect
       x="1878.671"
       y="369.12302"
       width="4343.6489"
       height="1128.6429"
       id="rect1" />
    <rect
       x="1878.671"
       y="369.12302"
       width="4343.6489"
       height="1128.6429"
       id="rect1-4" />
  </defs>
  <g
     inkscape:label="Calque 1"
     inkscape:groupmode="layer"
     id="layer1"
     transform="translate(-40.530012,-39.361567)">
    <path
       style="fill:#546a7b;fill-opacity:1;stroke-width:0.146118"
       d="m 68.584682,200.76523 v -31.87321 h 5.844719 5.844711 v 15.58591 15.58593 h 4.26591 4.26591 l 0.26815,-2.06513 c 0.297477,-2.29103 0.855124,-4.46408 1.449861,-5.6499 1.256294,-2.5049 4.468036,-4.60399 6.704211,-4.38167 0.49049,0.0488 1.523024,0.12946 2.294518,0.17933 l 1.402728,0.0907 0.89668,-0.77825 c 0.95923,-0.83254 1.05014,-0.87554 2.17322,-1.02794 0.88439,-0.12001 1.25204,0.0472 2.6274,1.19511 l 0.98998,0.82625 2.11143,-0.0487 c 1.9063,-0.044 2.22071,-0.0115 3.23616,0.33343 1.69283,0.57512 2.92968,1.67728 4.05316,3.61175 0.77635,1.33677 1.2426,3.31954 1.39081,5.91465 l 0.10283,1.80038 h 14.99291 14.99291 l 0.10282,-1.80038 c 0.14822,-2.59511 0.61447,-4.57788 1.39082,-5.91465 1.12348,-1.93447 2.36033,-3.03663 4.05316,-3.61175 1.01545,-0.34499 1.32986,-0.37739 3.23616,-0.33343 l 2.11143,0.0487 0.98998,-0.82625 c 1.37535,-1.14789 1.74301,-1.31512 2.62739,-1.19511 1.12309,0.1524 1.214,0.1954 2.17322,1.02794 l 0.89669,0.77825 1.40273,-0.0907 c 0.7715,-0.0499 1.80404,-0.13056 2.29454,-0.17933 1.1149,-0.11084 2.54471,0.33033 3.75556,1.15879 1.08821,0.74454 2.45489,2.23831 2.94869,3.22288 0.59474,1.18582 1.15239,3.35887 1.44987,5.6499 l 0.26815,2.06513 h 4.26591 4.2659 v -15.58593 -15.58591 h 5.84472 5.84472 v 31.87321 31.8732 h -5.84472 -5.84473 v -13.0169 -13.01693 l -3.93544,0.0416 -3.93544,0.0416 -0.099,2.57168 c -0.0545,1.41442 -0.18056,3.06263 -0.28019,3.66269 -0.35726,2.15165 -1.27235,4.50769 -2.37548,6.11598 -0.50694,0.73908 -2.33472,2.26776 -2.93415,2.45403 -0.21431,0.0666 -1.63243,0.16646 -3.15137,0.22194 l -2.76172,0.10088 -1.37303,0.95148 c -1.63015,1.12968 -2.5422,1.38991 -4.01368,1.14521 -0.51434,-0.0855 -0.96277,-0.1559 -0.99653,-0.1564 -0.0337,0 -0.54698,-0.49723 -1.1405,-1.10383 -1.07299,-1.09666 -1.08285,-1.10233 -1.73101,-0.99499 -0.35854,0.0594 -0.77001,0.16994 -0.91439,0.24571 -0.14437,0.0758 -0.7214,0.13776 -1.28228,0.13776 -1.30315,0 -2.79622,-0.54575 -3.70262,-1.35339 -3.42504,-3.05185 -3.72725,-4.03033 -4.33556,-14.03771 -0.001,-0.0214 -6.41988,-0.039 -14.26349,-0.039 -7.84362,0 -14.26219,0.0175 -14.26349,0.039 -0.41925,6.89713 -0.73576,9.07412 -1.57486,10.8323 -0.75682,1.58578 -2.89351,3.59897 -4.43592,4.17954 -1.04517,0.39339 -2.77914,0.51992 -3.30968,0.2415 -0.14438,-0.0758 -0.55586,-0.18633 -0.91439,-0.24571 -0.64817,-0.10734 -0.65802,-0.10167 -1.73101,0.99499 -0.59352,0.6066 -1.10675,1.10333 -1.1405,1.10383 -0.0337,0 -0.4822,0.0709 -0.99653,0.1564 -1.47148,0.2447 -2.38352,-0.0155 -4.01368,-1.14521 l -1.373028,-0.95148 -2.761705,-0.10088 c -1.518931,-0.0555 -2.937045,-0.15535 -3.151342,-0.22194 -0.599437,-0.18627 -2.427208,-1.71495 -2.934145,-2.45403 -1.103114,-1.60829 -2.018208,-3.96433 -2.375455,-6.11598 -0.0996,-0.60006 -0.22572,-2.24827 -0.2802,-3.66269 l -0.099,-2.57168 -3.93544,-0.0416 -3.93545,-0.0416 v 13.01693 13.0169 h -5.844711 -5.844719 z m 57.667838,31.39947 c -4.87302,-0.67096 -10.76349,-2.10202 -15.33722,-3.72611 -0.7633,-0.27103 -1.60493,-0.60976 -1.87031,-0.75273 -0.26537,-0.14294 -1.00851,-0.48233 -1.65143,-0.75417 -1.66117,-0.70237 -1.55791,-0.91088 0.46758,-0.94413 3.09769,-0.0509 4.96722,-0.44925 7.3165,-1.55914 3.83959,-1.814 5.67354,-4.61045 6.87268,-10.47966 0.26996,-1.32131 0.57126,-2.53116 0.66956,-2.68857 0.17056,-0.27312 0.66283,-0.28618 10.7801,-0.28618 10.11727,0 10.60953,0.013 10.7801,0.28618 0.0983,0.15741 0.3996,1.36726 0.66955,2.68857 1.19915,5.86921 3.0331,8.66566 6.87269,10.47966 2.34928,1.10989 4.21881,1.50828 7.3165,1.55914 2.02549,0.0333 2.12875,0.24176 0.46758,0.94413 -0.64292,0.27184 -1.38607,0.61123 -1.65144,0.75417 -0.47816,0.25761 -2.39171,0.96443 -4.19328,1.54893 -1.16429,0.37775 -4.93168,1.35441 -7.71503,2.00007 -1.15726,0.26844 -3.64478,0.69407 -5.52784,0.94583 -3.05236,0.40809 -3.83848,0.45592 -7.24745,0.44085 -3.27407,-0.0145 -4.28301,-0.0801 -7.01884,-0.45684 z M 54.089772,200.76523 v -24.08025 h 5.45507 5.45507 v 24.08025 24.08025 h -5.45507 -5.45507 z m 147.910328,0 v -24.08025 h 5.45507 5.45507 v 24.08025 24.08025 h -5.45507 -5.45507 z M 40.530012,203.3369 v -3.27304 h 5.29922 5.29921 v 3.27304 3.27305 h -5.29921 -5.29922 z m 175.341548,0 v -3.27304 h 5.29921 5.29922 v 3.27304 3.27305 h -5.29922 -5.29921 z m -93.29115,-8.22395 c -0.0909,-0.063 -0.32153,-0.64055 -0.5125,-1.28346 -0.54312,-1.82845 -1.26735,-3.75567 -1.68522,-4.48448 -0.49093,-0.85624 -2.10225,-2.57884 -2.97199,-3.17722 -2.04769,-1.40887 -4.44754,-2.17245 -7.72813,-2.45898 -1.05546,-0.0922 -1.47068,-0.19822 -1.79238,-0.45778 -0.96406,-0.77785 -1.73808,-1.01492 -3.3021,-1.01137 -1.76619,0.004 -2.51921,0.19512 -3.54268,0.89915 l -0.76601,0.52691 -3.183814,0.0677 c -3.573722,0.076 -3.689209,0.10622 -5.941637,1.55436 -1.542661,0.99181 -3.625098,3.41579 -4.626698,5.38555 -0.28376,0.55807 -0.41075,0.66241 -0.80612,0.66241 -0.26826,0 -0.50681,-0.0978 -0.55687,-0.22818 -0.11358,-0.29601 0.208,-12.41771 0.42604,-16.05911 0.52506,-8.76855 2.3667,-16.95911 5.466468,-24.31172 1.073434,-2.54618 1.272974,-2.88572 1.695851,-2.88572 0.17287,0 2.222738,1.06309 4.555263,2.36242 3.532757,1.96793 12.137997,6.52155 12.324107,6.52155 0.0297,0 2.55133,1.22739 5.60373,2.72754 3.05239,1.50015 5.58004,2.72754 5.61699,2.72754 0.0369,0 1.23086,0.56109 2.65311,1.24687 1.42226,0.68578 2.64841,1.24688 2.72477,1.24688 0.0764,0 0.96152,0.38655 1.96703,0.85902 1.86391,0.8758 5.01062,2.15426 5.30236,2.15426 0.29173,0 3.43844,-1.27846 5.30236,-2.15426 1.00551,-0.47247 1.89067,-0.85902 1.96703,-0.85902 0.0764,0 1.30251,-0.5611 2.72476,-1.24688 1.42226,-0.68578 2.61616,-1.24687 2.65312,-1.24687 0.0369,0 2.5646,-1.22739 5.61699,-2.72754 3.0524,-1.50015 5.57407,-2.72754 5.60373,-2.72754 0.18612,0 8.79135,-4.55362 12.32412,-6.52155 2.33253,-1.29933 4.38242,-2.36242 4.55529,-2.36242 0.42288,0 0.62242,0.33954 1.69586,2.88572 3.09978,7.35261 4.94142,15.54317 5.46647,24.31172 0.21805,3.6414 0.53963,15.7631 0.42605,16.05911 -0.05,0.13043 -0.28862,0.22818 -0.55686,0.22818 -0.39538,0 -0.52236,-0.10434 -0.80613,-0.66241 -1.0016,-1.96976 -3.08404,-4.39374 -4.6267,-5.38555 -2.25245,-1.44814 -2.36793,-1.47834 -5.94168,-1.55436 l -3.18383,-0.0677 -0.766,-0.52691 c -1.02347,-0.70403 -1.77649,-0.89514 -3.54269,-0.89915 -1.56401,-0.003 -2.33803,0.23352 -3.30209,1.01137 -0.3217,0.25956 -0.73692,0.3656 -1.79238,0.45778 -3.2806,0.28653 -5.68044,1.05011 -7.72814,2.45898 -0.86974,0.59838 -2.48106,2.32098 -2.97199,3.17722 -0.41787,0.72881 -1.14209,2.65603 -1.68521,4.48448 -0.19097,0.64291 -0.4216,1.22048 -0.51251,1.28346 -0.0909,0.063 -5.00471,0.11451 -10.91956,0.11451 -5.91487,0 -10.82867,-0.0515 -10.91958,-0.11451 z m 9.43891,-32.54234 c -1.66677,-0.6256 -2.67933,-1.03771 -3.81856,-1.55416 -0.42861,-0.1943 -1.23518,-0.54172 -1.79237,-0.77203 -2.4236,-1.00178 -4.83003,-2.09301 -8.10469,-3.67518 -1.92875,-0.93189 -4.3134,-2.04162 -5.29921,-2.46608 -1.68123,-0.7239 -1.79238,-0.79908 -1.79238,-1.21235 0,-0.36171 0.18635,-0.58023 1.04092,-1.22056 1.38805,-1.04008 3.78096,-2.28799 5.50517,-2.87096 1.14483,-0.38708 1.30109,-0.47486 0.84992,-0.47749 -0.93377,-0.006 -4.52231,1.30209 -7.84739,2.85924 -0.84832,0.39728 -1.70462,0.72232 -1.9029,0.72232 -0.19828,0 -0.97708,-0.31746 -1.73065,-0.70547 -0.75358,-0.38801 -1.61562,-0.7729 -1.91565,-0.85532 -0.73235,-0.20117 -1.55859,-0.72304 -1.55859,-0.98444 0,-0.39785 0.546,-0.6746 3.19511,-1.61951 3.25002,-1.15924 4.1544,-1.40737 8.10468,-2.2236 3.83075,-0.79153 3.70965,-0.75157 3.0828,-1.01718 -0.43429,-0.18401 -0.75382,-0.17345 -2.36992,0.0783 -4.74186,0.73878 -8.74682,1.87211 -11.50936,3.25693 -1.04569,0.52418 -2.01033,0.95306 -2.14365,0.95306 -0.42529,0 -1.49814,-0.63108 -2.239318,-1.31722 l -0.718187,-0.66488 -1.558581,-0.10723 c -2.719785,-0.18713 -12.631402,0.74909 -15.377122,1.45247 -5.495231,1.40773 -12.65019,4.16007 -17.587051,6.76532 -1.328709,0.70117 -2.480109,1.27486 -2.558689,1.27486 -1.04463,0 2.80601,-2.42338 7.003709,-4.40774 6.28818,-2.97259 12.15253,-5.0974 15.582881,-5.6461 0.428619,-0.0685 1.410529,-0.23657 2.182029,-0.37337 2.652897,-0.4704 12.158903,-1.2393 18.547189,-1.5002 3.76779,-0.15388 5.8532,-0.41609 5.06198,-0.63648 -0.55554,-0.15474 -7.19304,-0.14902 -9.5819,0.008 -1.114388,0.0734 -3.400967,0.2236 -5.081278,0.33385 l -3.055122,0.20044 -1.205484,-1.00299 c -2.680494,-2.23025 -3.406875,-2.79538 -3.592974,-2.79538 -0.773391,0 -5.348861,0.55545 -7.79436,0.94621 -6.14501,0.98191 -11.05099,2.03505 -13.70732,2.94247 -1.29662,0.44294 -1.84389,0.45602 -1.58548,0.0379 0.20018,-0.3239 4.54013,-1.91579 6.82146,-2.5021 2.81064,-0.72236 7.925259,-1.77555 10.30216,-2.1214 6.489093,-0.9442 18.019397,-0.93654 23.730038,0.0158 3.05441,0.50936 7.64299,1.69311 11.42029,2.94619 0.29004,0.0962 0.005,-0.37871 -0.5357,-0.89299 -0.40061,-0.38094 -0.91869,-0.69397 -2.54612,-1.53843 -0.94778,-0.49179 -4.81987,-1.51693 -7.24746,-1.91877 -4.32729,-0.71631 -7.910246,-0.92436 -14.431507,-0.83802 l -5.859282,0.0776 -0.70086,-0.87613 c -1.01848,-1.2732 -1.83384,-2.53855 -2.77404,-4.30504 -0.45626,-0.85722 -1.81188,-3.34708 -3.01248,-5.533 -1.2006,-2.18592 -2.94178,-5.48235 -3.86928,-7.32538 -0.92749,-1.84304 -1.83351,-3.59919 -2.01336,-3.90255 l -0.32702,-0.55157 1.93058,-3.26699 c 1.06181,-1.79683 2.68022,-4.47951 3.59647,-5.96151 0.91624,-1.48199 1.79969,-2.95679 1.96321,-3.27733 0.16353,-0.32054 1.07641,-1.82635 2.02863,-3.346262 l 1.73129,-2.76323 -0.76516,-3.07697 c -1.67313,-6.72809 -2.91338,-14.39815 -3.36471,-20.8082 -0.47545,-6.75268 -0.24303,-20.51769 0.40589,-24.03903 0.50396,-2.73466 1.31508,-5.63621 2.06959,-7.403317 0.81902,-1.91816 1.08144,-2.07711 2.07598,-1.25733 0.318961,0.26292 0.642021,0.47804 0.7179,0.47804 0.19594,0 3.736435,2.255157 4.876029,3.105847 0.525097,0.39198 1.56549,1.16859 2.311958,1.72578 0.746464,0.5572 1.473061,1.08322 1.614661,1.16895 0.643967,0.38985 4.812873,3.79496 6.350301,5.18684 0.93752,0.84878 4.82567,4.66343 8.64033,8.47702 4.36697,4.36574 7.26877,7.14576 7.83495,7.50614 0.79032,0.50305 1.01682,0.57208 1.87031,0.56997 0.5341,-0.001 1.52353,-0.14159 2.19874,-0.31172 1.16401,-0.29329 1.77096,-0.30932 11.70867,-0.30932 9.93771,0 10.54466,0.016 11.70867,0.30932 0.6752,0.17013 1.66464,0.3104 2.19874,0.31172 0.85349,0.002 1.07999,-0.0669 1.87031,-0.56997 0.56618,-0.36038 3.46798,-3.1404 7.83495,-7.50614 3.81465,-3.81359 7.7028,-7.62824 8.64033,-8.47702 1.53744,-1.39188 5.70636,-4.79699 6.35033,-5.18684 0.1416,-0.0857 0.8682,-0.61175 1.61467,-1.16895 0.74648,-0.55719 1.78686,-1.3338 2.31198,-1.72578 1.13959,-0.85069 4.68009,-3.105847 4.87603,-3.105847 0.0759,0 0.39893,-0.21512 0.7179,-0.47804 0.99453,-0.81978 1.25697,-0.66083 2.07597,1.25733 0.75451,1.767107 1.56564,4.668657 2.06959,7.403317 0.64893,3.52134 0.88133,17.28635 0.40589,24.03903 -0.45132,6.41005 -1.69157,14.08011 -3.36469,20.80821 l -0.76517,3.07696 1.7313,2.76346 c 0.95221,1.519912 1.86509,3.025732 2.02861,3.346272 0.16353,0.32053 1.04697,1.79534 1.96321,3.27732 0.91625,1.482 2.53467,4.16469 3.59648,5.96152 l 1.93057,3.26698 -0.32701,0.55157 c -0.17986,0.30337 -1.08587,2.05951 -2.01337,3.90255 -0.9275,1.84304 -2.66866,5.13946 -3.86928,7.32539 -1.20059,2.18592 -2.55621,4.67577 -3.01246,5.533 -0.94022,1.76649 -1.75557,3.03184 -2.77405,4.30503 l -0.70085,0.87613 -5.8593,-0.0776 c -6.52131,-0.0863 -10.10428,0.12171 -14.43156,0.83801 -2.42759,0.40185 -6.29968,1.42699 -7.24746,1.91878 -1.62744,0.84446 -2.14551,1.15749 -2.54612,1.53843 -0.54083,0.51427 -0.82574,0.9892 -0.5357,0.89298 3.77729,-1.25307 8.36588,-2.43683 11.42029,-2.94618 5.71064,-0.95231 17.24101,-0.95998 23.7301,-0.0158 2.3769,0.34585 7.49153,1.39905 10.30217,2.1214 2.28132,0.58632 6.62128,2.1782 6.82144,2.5021 0.25841,0.41811 -0.28886,0.40503 -1.58547,-0.0379 -2.65634,-0.90743 -7.56232,-1.96056 -13.70733,-2.94247 -2.44549,-0.39076 -7.02096,-0.94621 -7.79435,-0.94621 -0.1861,0 -0.91248,0.56513 -3.59299,2.79538 l -1.20549,1.00299 -3.05514,-0.20045 c -1.68032,-0.11025 -3.96691,-0.26048 -5.08129,-0.33384 -2.38887,-0.15728 -9.02636,-0.16299 -9.5819,-0.008 -0.79123,0.22039 1.29418,0.4826 5.06197,0.63647 6.38829,0.2609 15.89435,1.0298 18.54725,1.5002 0.7715,0.1368 1.75342,0.30482 2.18203,0.37338 3.43035,0.5487 9.29471,2.6735 15.58288,5.64609 3.12022,1.47501 7.30494,3.93264 7.20531,4.23157 -0.0323,0.0969 -0.12301,0.17618 -0.20159,0.17618 -0.0786,0 -1.23,-0.5737 -2.55869,-1.27487 -4.93686,-2.60524 -12.09183,-5.35759 -17.58705,-6.76532 -2.74572,-0.70338 -12.65738,-1.63959 -15.37717,-1.45246 l -1.5586,0.10723 -0.71819,0.66487 c -0.74118,0.68615 -1.81403,1.31723 -2.23932,1.31723 -0.13331,0 -1.09796,-0.42888 -2.14365,-0.95307 -2.76254,-1.38482 -6.7675,-2.51815 -11.50935,-3.25692 -1.61611,-0.25179 -1.93564,-0.26235 -2.36993,-0.0783 -0.62685,0.26561 -0.74795,0.22565 3.0828,1.01718 3.95029,0.81623 4.85467,1.06435 8.10468,2.2236 2.64911,0.9449 3.19511,1.22165 3.19511,1.61951 0,0.2614 -0.82624,0.78327 -1.55859,0.98444 -0.30003,0.0824 -1.16207,0.4673 -1.91564,0.85531 -0.75358,0.38801 -1.53237,0.70547 -1.73065,0.70547 -0.19828,0 -1.05459,-0.32503 -1.90291,-0.72231 -3.32508,-1.55716 -6.91361,-2.86466 -7.84739,-2.85924 -0.45117,0.003 -0.29491,0.0904 0.84993,0.47749 1.7242,0.58297 4.11711,1.83088 5.50516,2.87095 0.85457,0.64034 1.04093,0.85886 1.04093,1.22057 0,0.41327 -0.11116,0.48845 -1.79239,1.21234 -0.9858,0.42446 -3.37045,1.5342 -5.29921,2.46609 -3.27466,1.58217 -5.68109,2.67339 -8.10468,3.67518 -0.55719,0.23031 -1.36377,0.57773 -1.79238,0.77203 -0.42862,0.1943 -1.16505,0.50978 -1.63653,0.70105 -0.47147,0.19128 -1.29917,0.55367 -1.83933,0.80531 -1.43481,0.66843 -1.64245,0.67144 -3.30402,0.0478 z m 2.31893,-18.20186 c 0.35332,-0.45796 0.64239,-0.94353 0.64239,-1.07905 0,-0.13552 0.17534,-0.45478 0.38965,-0.70947 0.21431,-0.25469 0.38965,-0.52548 0.38965,-0.60176 0,-0.40384 2.62994,-2.54426 4.75371,-3.86887 0.51433,-0.3208 1.02282,-0.69333 1.12997,-0.82786 0.24194,-0.30373 0.26133,-2.41913 0.0262,-2.85846 -0.0927,-0.17329 -0.39083,-0.51731 -0.66241,-0.76448 l -0.49378,-0.44941 h -7.01366 -7.01367 l -0.49378,0.44941 c -0.27158,0.24717 -0.56966,0.59119 -0.6624,0.76448 -0.23512,0.43933 -0.21573,2.55473 0.0262,2.85846 0.10715,0.13453 0.61564,0.50706 1.12998,0.82786 2.12376,1.32461 4.75371,3.46503 4.75371,3.86887 0,0.0763 0.17534,0.34707 0.38964,0.60176 0.21431,0.25469 0.38965,0.57395 0.38965,0.70947 0,0.3248 1.2291,1.91171 1.48067,1.91171 0.10773,0 0.48495,-0.37469 0.83827,-0.83266 z m -16.1904,-20.08835 c 1.42437,-0.37448 5.6372,-1.66467 5.73762,-1.75716 0.0268,-0.0247 -0.0299,-0.49055 -0.126,-1.03521 -0.49344,-2.7963 -4.11506,-7.78725 -7.12421,-9.81787 -1.00423,-0.67767 -1.21324,-0.75778 -1.97707,-0.75778 -1.50052,0 -1.5524,0.0509 -2.2556,2.21302 -0.77905,2.39534 -1.89185,6.41063 -1.89185,6.8263 0,0.2045 -0.10374,0.31223 -0.30065,0.31223 -0.22936,0 -0.35564,-0.19405 -0.53247,-0.81826 -0.95258,-3.36252 -0.92627,-3.19117 -1.02311,-6.66298 -0.0833,-2.98606 -0.12796,-3.40981 -0.41014,-3.89125 -0.22472,-0.38341 -0.47341,-0.5757 -0.85649,-0.66227 -0.29691,-0.0671 -2.69653,-0.16814 -5.3325,-0.22455 l -4.792657,-0.10257 v 1.96678 1.96677 l 1.044034,2.46075 c 1.957203,4.61305 4.335473,7.24737 8.371433,9.27271 2.20439,1.10621 2.82597,1.21282 6.71595,1.15189 2.88977,-0.0453 3.44642,-0.0969 4.75371,-0.44055 z m 39.60424,0.2799 c 2.09465,-0.44401 5.72894,-2.63634 7.33325,-4.42367 1.55951,-1.73744 2.54169,-3.32735 3.60787,-5.84028 l 1.04404,-2.46075 v -1.96677 -1.96678 l -4.79267,0.10257 c -2.63597,0.0564 -5.03559,0.15745 -5.3325,0.22455 -0.38308,0.0866 -0.63176,0.27886 -0.85649,0.66227 -0.28218,0.48144 -0.32685,0.90519 -0.41014,3.89125 -0.0968,3.47181 -0.0705,3.30046 -1.02311,6.66298 -0.17683,0.62421 -0.3031,0.81826 -0.53246,0.81826 -0.19693,0 -0.30066,-0.10773 -0.30066,-0.31223 0,-0.41567 -1.11281,-4.43096 -1.89185,-6.8263 -0.7032,-2.16212 -0.75508,-2.21302 -2.25561,-2.21302 -0.76383,0 -0.97283,0.0801 -1.97706,0.75778 -3.00915,2.03062 -6.63077,7.02157 -7.12421,9.81787 -0.0961,0.54466 -0.15281,1.01005 -0.126,1.03419 0.14263,0.12837 4.77923,1.50425 6.04934,1.7951 0.81436,0.18649 1.5508,0.36221 1.63653,0.39049 0.49628,0.16376 6.03805,0.0462 6.95173,-0.14751 z"
       id="path1" />
  </g>
</svg>
